<?xml version="1.0" standalone="no"?>
<!DOCTYPE svg PUBLIC "-//W3C//DTD SVG 20010904//EN"
 "http://www.w3.org/TR/2001/REC-SVG-20010904/DTD/svg10.dtd">
<svg version="1.0" xmlns="http://www.w3.org/2000/svg"
 width="260.000000pt" height="260.000000pt" viewBox="0 0 260.000000 260.000000"
 preserveAspectRatio="xMidYMid meet">
<metadata>
Created by potrace 1.14, written by Peter Selinger 2001-2017
</metadata>
<g transform="translate(0.000000,260.000000) scale(0.100000,-0.100000)"
fill="#000000" stroke="none">
<path d="M74 2522 c-10 -10 -8 -23 12 -67 13 -31 24 -62 24 -71 0 -30 40 -93
74 -113 19 -12 50 -22 70 -23 42 -1 49 -8 65 -63 7 -22 17 -50 24 -63 14 -30
69 -63 105 -64 l29 -1 1 -133 1 -134 -107 0 c-59 0 -113 -4 -121 -9 -12 -8
-11 -21 9 -88 40 -139 62 -161 163 -164 l55 -2 -1 -39 c-1 -25 -6 -38 -15 -38
-7 0 -27 -13 -43 -29 -50 -50 -34 -137 30 -159 l28 -10 0 -496 0 -496 -33 -20
c-19 -11 -39 -31 -44 -45 -14 -37 -12 -112 3 -122 17 -10 428 -11 450 -1 13 7
17 21 17 62 0 58 -24 101 -64 115 -21 8 -21 10 -22 476 -1 423 -3 469 -18 480
-9 7 -16 20 -16 29 0 13 12 16 76 16 65 0 77 3 81 18 3 14 11 18 29 14 22 -4
24 -9 24 -61 0 -55 -2 -60 -50 -111 -28 -29 -50 -58 -50 -63 0 -4 13 -22 30
-38 l29 -30 -19 -32 -19 -31 25 -27 26 -27 -21 -29 c-26 -35 -22 -48 32 -91
l42 -34 67 71 c38 39 68 77 68 85 0 8 -12 24 -27 35 l-26 21 21 23 c28 30 28
39 -3 75 -22 26 -23 31 -10 42 23 19 18 33 -20 70 -29 28 -35 41 -35 77 l0 43
125 0 125 0 0 -42 c0 -38 -6 -49 -50 -95 -28 -29 -50 -58 -50 -66 0 -7 13 -26
29 -41 l30 -29 -22 -28 -21 -29 27 -28 28 -29 -21 -25 c-26 -34 -25 -38 8 -74
57 -62 62 -62 136 18 36 39 66 75 66 80 0 5 -11 20 -25 34 -21 21 -23 28 -12
44 6 11 15 20 19 20 16 0 7 28 -18 55 -23 25 -24 29 -10 44 23 25 20 33 -19
71 -29 28 -35 41 -35 77 l0 43 40 1 c22 0 69 0 105 0 144 0 131 4 133 -44 2
-39 -1 -46 -48 -92 -27 -27 -50 -56 -50 -65 0 -9 13 -29 30 -45 l29 -28 -19
-25 c-26 -32 -25 -38 5 -64 l24 -21 -19 -28 c-11 -15 -20 -33 -20 -41 0 -17
61 -75 83 -80 16 -3 147 126 147 145 0 4 -11 19 -25 33 l-25 25 20 29 c25 35
25 34 -5 64 -24 24 -25 27 -10 50 16 24 15 26 -20 65 -28 31 -37 49 -37 76 0
20 2 38 4 40 3 4 84 7 141 6 30 -1 37 -5 37 -21 0 -10 -7 -23 -17 -28 -15 -9
-16 -52 -16 -477 l0 -466 -22 -9 c-41 -16 -65 -58 -65 -116 0 -31 5 -56 13
-61 17 -10 428 -11 450 -1 13 7 17 21 17 63 0 43 -5 59 -26 84 -14 17 -34 31
-43 31 -17 0 -18 29 -18 501 l0 501 22 8 c84 32 87 142 6 184 -21 12 -28 22
-29 48 l-1 33 55 3 c101 4 123 26 163 160 30 100 27 102 -109 102 l-107 0 0
135 0 135 30 0 c36 0 89 32 104 62 7 13 17 41 24 63 16 55 23 62 65 63 20 1
51 11 70 23 33 20 74 82 74 112 0 7 11 40 24 73 16 38 21 63 15 69 -16 16
-2439 13 -2455 -3z m1057 -533 c0 -38 1 -85 1 -104 0 -19 -1 -48 -1 -65 l-1
-30 -174 0 -173 0 0 135 1 134 173 0 173 0 1 -70z m686 -66 l1 -133 -173 0
-174 0 -3 28 c-2 15 -2 75 0 134 l3 106 172 -1 172 -2 2 -132z m0 -430 c1 -18
-2 -34 -5 -34 -4 -1 -47 -3 -96 -4 -68 -2 -92 -6 -101 -18 -14 -19 -56 -18
-71 2 -9 12 -71 14 -385 15 l-374 1 -1 30 c-1 17 0 33 2 37 2 3 235 5 516 5
l513 -2 2 -32z"/>
</g>
</svg>
